# xmcd
#
# Track frame offsets: 
#        154
#        25464
#        79272
#        106802
#        145039
#        182827
#        215885
#        250360
#        289678
#
# Disc length: 4227 seconds
#
# Revision: 9
# Processed by: cddbd v1.5.2PL0 Copyright (c) Steve Scherf et al.
# Submitted via: ExactAudioCopy v0.99pb4
#
DISCID=85108109
DTITLE=Hiromi - Another Mind
DYEAR=2003
DGENRE=Jazz
TTITLE0=XYZ
TTITLE1=Double Personality
TTITLE2=Summer Rain
TTITLE3=Joy
TTITLE4=010101 (binary system)
TTITLE5=Truth and Lies
TTITLE6=Dancando No Paraiso
TTITLE7=Another Mind
TTITLE8=The Tom and Jerry Show
EXTD=YEAR: 2003
EXTT0=
EXTT1=
EXTT2=
EXTT3=
EXTT4=
EXTT5=
EXTT6=
EXTT7=
EXTT8=
PLAYORDER=
